<?xml version="1.0" encoding="UTF-8" standalone="no"?>
<svg
   width="1600"
   height="360"
   viewBox="0 0 1600 360"
   role="img"
   aria-labelledby="title desc"
   version="1.1"
   id="svg17"
   xmlns="http://www.w3.org/2000/svg"
   xmlns:svg="http://www.w3.org/2000/svg">
  <defs
     id="defs21" />
  <title
     id="title">AFSILVA Tech — logo para fundo escuro</title>
  <desc
     id="desc">Símbolo geométrico azul e ciano com wordmark branco e ciano.</desc>
  <g
     id="mark"
     transform="translate(42,42)">
    <path
       fill="#0b6dff"
       d="M 16,224 143,97 h 88 L 104,224 Z"
       id="path4" />
    <path
       fill="#2c8cff"
       d="m 111,272 73,-73 h 62 l -73,73 z"
       id="path6" />
    <path
       fill="#42d2ff"
       d="m 149,157 77,-77 85,-39 -54,79 -60,59 z"
       id="path8" />
  </g>
  <g
     font-family="'DejaVu Sans', Arial, sans-serif"
     font-size="108px"
     font-weight="700"
     letter-spacing="-2"
     id="g15">
    <g
       aria-label="AFSILVA"
       id="text11"
       style="fill:#ffffff">
      <path
         d="m 442.69141,198.65625 h -31.7461 L 405.93555,213 h -20.40821 l 29.16211,-78.73242 h 24.20508 L 468.05664,213 h -20.4082 z m -26.6836,-14.60742 h 21.56836 l -10.75781,-31.32422 z"
         id="path23" />
      <path
         d="m 476.49805,134.26758 h 54.79101 v 15.3457 h -34.48828 v 14.66016 h 32.43164 v 15.3457 H 496.80078 V 213 h -20.30273 z"
         id="path25" />
      <path
         d="m 603.06445,136.74609 v 16.66407 q -6.48633,-2.90039 -12.65625,-4.37696 -6.16992,-1.47656 -11.65429,-1.47656 -7.27735,0 -10.75782,2.00391 -3.48047,2.0039 -3.48047,6.22265 0,3.16407 2.32032,4.95703 2.37304,1.74024 8.54297,3.00586 l 8.64843,1.74024 q 13.13086,2.63672 18.66797,8.01562 5.53711,5.37891 5.53711,15.29297 0,13.02539 -7.75195,19.40625 -7.69922,6.32813 -23.57227,6.32813 -7.48828,0 -15.02929,-1.42383 -7.54102,-1.42383 -15.08204,-4.21875 v -17.13867 q 7.54102,4.00781 14.55469,6.06445 7.06641,2.00391 13.60547,2.00391 6.64453,0 10.17774,-2.21485 3.5332,-2.21484 3.5332,-6.32812 0,-3.69141 -2.42578,-5.69532 -2.37305,-2.0039 -9.54492,-3.58593 l -7.85743,-1.74024 q -11.8125,-2.53125 -17.29687,-8.06836 -5.43164,-5.53711 -5.43164,-14.92382 0,-11.75977 7.59375,-18.0879 7.59375,-6.32812 21.83203,-6.32812 6.48633,0 13.3418,1.00195 6.85546,0.94922 14.18554,2.90039 z"
         id="path27" />
      <path
         d="m 624.05664,134.26758 h 20.30273 V 213 h -20.30273 z"
         id="path29" />
      <path
         d="m 662.24023,134.26758 h 20.30274 v 63.38672 h 35.64844 V 213 h -55.95118 z"
         id="path31" />
      <path
         d="m 704.80078,134.26758 h 20.4082 l 20.88282,58.11328 20.83007,-58.11328 h 20.40821 L 758.16797,213 h -24.20508 z"
         id="path33" />
      <path
         d="M 836.21875,198.65625 H 804.47266 L 799.46289,213 h -20.4082 l 29.16211,-78.73242 h 24.20507 L 861.58398,213 h -20.4082 z m -26.68359,-14.60742 h 21.56836 L 820.3457,152.72461 Z"
         id="path35" />
    </g>
    <g
       aria-label="TECH"
       id="text13"
       style="font-weight:500;letter-spacing:2;fill:#42d2ff">
      <path
         d="m 926.68359,134.26758 h 66.60352 v 8.96484 H 965.33789 V 213 h -10.70508 v -69.76758 h -27.94922 z"
         id="path38" />
      <path
         d="m 1005.5703,134.26758 h 49.7813 v 8.96484 h -39.1289 v 23.3086 h 37.4941 v 8.96484 h -37.4941 v 28.5293 h 40.0781 V 213 h -50.7305 z"
         id="path40" />
      <path
         d="m 1134.7656,140.33203 v 11.23242 q -5.3789,-5.00976 -11.4961,-7.48828 -6.0644,-2.47851 -12.9199,-2.47851 -13.5,0 -20.6719,8.27929 -7.1718,8.22657 -7.1718,23.83594 0,15.55664 7.1718,23.83594 7.1719,8.22656 20.6719,8.22656 6.8555,0 12.9199,-2.47852 6.1172,-2.47851 11.4961,-7.48828 v 11.12696 q -5.5898,3.79687 -11.8652,5.69531 -6.2227,1.89844 -13.1836,1.89844 -17.877,0 -28.1602,-10.91602 -10.2832,-10.96875 -10.2832,-29.90039 0,-18.98437 10.2832,-29.90039 10.2832,-10.96875 28.1602,-10.96875 7.0664,0 13.2891,1.89844 6.2754,1.8457 11.7597,5.58984 z"
         id="path42" />
      <path
         d="m 1153.2188,134.26758 h 10.6523 v 32.27344 h 38.707 v -32.27344 h 10.6524 V 213 h -10.6524 v -37.49414 h -38.707 V 213 h -10.6523 z"
         id="path44" />
    </g>
  </g>
</svg>
